<svg id="SvgjsSvg1065" width="288" height="288" xmlns="http://www.w3.org/2000/svg" version="1.1" xmlns:xlink="http://www.w3.org/1999/xlink" xmlns:svgjs="http://svgjs.com/svgjs"><defs id="SvgjsDefs1066"></defs><g id="SvgjsG1067"><svg xmlns="http://www.w3.org/2000/svg" viewBox="0 0 40 40" width="288" height="288"><path d="M5.07 13.95h5.79v.81H5.07zM5.07 15.56h5.79v.81H5.07zM6.69 17.18h2.54v.81H6.69zM6.69 18.79h2.54v.81H6.69zM6.69 20.4h2.54v.81H6.69zM6.69 22.02h2.54v.81H6.69zM5.07 23.63h5.79v.81H5.07zM5.07 25.24h5.79v.81H5.07zM26.32 13.95l.29.81h-4.98v-.81h4.69zM34.91 13.95v.81h-4.98l.29-.81h4.69zM26.89 15.56l.29.81h-5.55v-.81h5.26zM34.91 15.56v.81h-5.56l.29-.81h5.27zM27.47 17.18l.29.8h-4.47v-.8h4.18zM33.24 17.18v.8h-4.46l.28-.8h4.18zM33.24 18.79v.81h-2.51v-.41l-.15.41h-4.62l-.15-.41v.41h-2.52v-.81h4.76l.22.61.22-.61h4.75zM23.29 20.4h2.52v.81h-2.52zM26.24 20.4h4.06l-.29.81h-3.48l-.29-.81zM30.73 20.4h2.51v.81h-2.51zM23.29 22.02h2.52v.8h-2.52zM26.82 22.02h2.9l-.29.8h-2.32l-.29-.8zM30.73 22.02h2.51v.8h-2.51zM21.63 23.63h4.18v.81h-4.18zM27.4 23.63h1.74l-.29.81h-1.16l-.29-.81zM30.73 23.63h4.18v.81h-4.18zM21.63 25.24h4.18v.81h-4.18zM27.98 25.24h.58l-.29.81-.29-.81zM30.73 25.24h4.18v.81h-4.18zM13.31 17.18h2.54v.81h-2.54zM17.65 18.79h-4.34v.81h6.52a2.23 2.23 0 0 0 .69-.81zm.11-4.79h-6.07v.81H20a3.46 3.46 0 0 0-2.24-.81zM21 16.37a2.51 2.51 0 0 0-.28-.81h-9v.81H21zm0 .81a3.12 3.12 0 0 1-.14.8h-2.52v-.8zM13.31 22.02h2.54v.81h-2.54zM20.52 21.21a2.23 2.23 0 0 0-.69-.81h-6.52v.81h7.21zm-2.74 4.03h-6.09v.81h6.07a3.46 3.46 0 0 0 2.24-.81zm-.3-1.61h-5.79v.81h9a2.51 2.51 0 0 0 .28-.81zm3.52-.81a3.12 3.12 0 0 0-.14-.8h-2.52v.8z" fill="#ffffff" class="color000 svgShape"></path></svg></g></svg>